<?xml version="1.0"?>
<svg xmlns="http://www.w3.org/2000/svg" id="Capa_1" enable-background="new 0 0 512 512" height="512px" viewBox="0 0 512 512" width="512px"><g><g><path d="m387.75 216.835v12c0 4.142 3.358 7.5 7.5 7.5s7.5-3.358 7.5-7.5v-12c0-4.142-3.358-7.5-7.5-7.5s-7.5 3.358-7.5 7.5zm-149.463 0v12c0 4.142 3.358 7.5 7.5 7.5s7.5-3.358 7.5-7.5v-12c0-4.142-3.358-7.5-7.5-7.5s-7.5 3.358-7.5 7.5zm239.118-53.289c-2.948-2.912-7.697-2.881-10.606.064-2.911 2.947-2.882 7.695.064 10.606 19.434 19.2 30.137 44.817 30.137 72.132 0 42.317-15.959 94.44-41.648 136.028-25.632 41.493-56.402 66.181-85.147 68.605 10.924-32.885-8.057-71.271-42.786-84.652 2.265-19.488-4.625-40.567-20.394-56.336-20.578-20.578-50.195-26.05-73.518-15.761-10.369-22.091-31.354-36.414-54.517-36.414-12.277 0-23.862 3.927-33.604 10.9-.894-7.728-1.348-15.213-1.348-22.37 0-55.907 45.483-101.39 101.39-101.39 22.239 0 43.431 7.082 61.232 20.608 8.16 6.199 19.558 6.2 27.719-.001 17.126-13.013 38.277-20.607 61.232-20.607 15.401 0 30.189 3.363 43.952 9.994 3.734 1.798 8.215.23 10.012-3.501 1.798-3.732.231-8.214-3.501-10.012-15.81-7.619-32.789-11.481-50.463-11.481-14.896 0-29.342 2.785-42.836 8.143 7.36-25.412 25.164-45.458 54.068-60.989 13.784-7.406 18.949-24.557 11.541-38.343-7.388-13.752-24.588-18.93-38.344-11.541-25.959 13.948-48.701 32.705-64.559 57.406-4.712-7.009-9.928-13.409-15.61-19.091-28.806-28.806-68.695-39.508-97.085-43.415-20.328-2.792-37.744 14.611-34.947 34.947 3.212 23.351 11.229 55.65 31.032 82.611-41.067 17.996-69.832 59.029-69.832 106.661 0 11.172 1.025 23.044 3.024 35.328-2.783 3.637-5.236 7.627-7.298 11.932-10.726-2.391-21.3-2.092-31.092.663-5.278-17.203-7.342-36.955-5.976-57.622 1.038-15.696-10.888-29.31-26.581-30.348-11.013-.736-21.571 5.049-26.896 14.734-1.996 3.629-.671 8.19 2.958 10.186 3.629 1.995 8.19.671 10.186-2.958 2.528-4.597 7.539-7.337 12.758-6.995 7.444.493 13.099 6.949 12.607 14.392-1.526 23.081.933 45.236 7.098 64.549-8.847 5.277-15.952 12.683-20.857 21.743-7.758-18.34-12.384-39.492-13.487-62.147-.202-4.137-3.703-7.319-7.856-7.126-4.137.202-7.328 3.719-7.126 7.856 1.495 30.698 9.058 59.007 21.875 82.106-.412 3.312-.545 6.698-.417 10.125-29.382 4.917-51.959 32.731-51.959 66.2 0 36.928 27.485 66.972 61.269 66.972 16.765 0 32.689-7.541 44.154-20.559 23.077 24.082 57.991 28.419 82.408 12.709 25.628 17.428 59.962 16.379 81.063-5.85 28.97 25.812 72.297 23.722 93.606-6.066 45.381.703 81.975-37.644 105.613-75.911 27.481-44.487 43.887-98.286 43.887-143.912 0-31.356-12.286-60.763-34.595-82.802zm-90.267-123.103c6.468-3.474 14.556-1.042 18.031 5.427 3.483 6.482 1.056 14.547-5.427 18.03-37.387 20.089-58.441 47.209-64.262 82.819-3.484 2.115-6.887 4.404-10.177 6.904-2.817 2.142-6.753 2.14-9.57.001-2.402-1.825-4.863-3.54-7.371-5.161 5.97-49.031 34.926-84.458 78.776-108.02zm-204.44 14.59c-1.441-10.472 7.557-19.489 18.042-18.043 47.307 6.508 74.251 24.888 88.523 39.161 6.697 6.697 12.696 14.549 17.878 23.371-5.821 12.024-9.937 24.896-12.351 38.512-17.847-25.262-43.648-49.368-54.461-57.335-3.335-2.455-8.03-1.744-10.487 1.59-2.456 3.334-1.745 8.03 1.59 10.486 7.881 5.806 25.359 21.886 40.576 40.237-8.619-2.015-17.516-3.055-26.581-3.055-10.999 0-21.647 1.535-31.741 4.4-19.95-25.06-27.875-56.694-30.988-79.324zm-3.709 217.786c17.789 0 33.954 11.58 41.624 29.302-1.472 1.2-2.901 2.473-4.269 3.841-14.55 14.55-20.009 36.239-14.945 57.214-6.654 1.486-13.049 4.099-18.898 7.885-.885-.6-1.778-1.18-2.681-1.735 3.413-28.928-13.564-58.001-40.743-70.808 7.991-15.366 22.826-25.699 39.912-25.699zm-99.649 46.617c5.742-5.742 11.041-7.805 13.113-8.868 32.491-13.917 73.24 14.046 72.798 51.946-20.674-6.895-43.292-3.554-59.549 10.363-10.19-11.72-23.982-19.08-38.751-20.592-.467-12.349 3.722-24.181 12.389-32.849zm-18.071 151.5c-25.513 0-46.269-23.314-46.269-51.971 0-29.476 21.514-51.972 46.269-51.972 13.096 0 25.606 6.357 34.338 17.208-13.438 19.94-13.135 47.073.39 69.03-8.747 11.157-21.418 17.705-34.728 17.705zm121.848-7.899c-.007.006-.014.012-.021.018-18.361 14.631-46.968 11.867-65.98-7.146-20.983-20.983-21.409-52.091-4.033-69.467 18.449-18.448 49.669-15.766 69.467 4.032 21.483 21.483 22.22 55.286.567 72.563zm16.591 4.805c20.774-23.68 18.679-61.285-5.1-86.454 17.495-8.812 41.42-5.328 58.614 11.866 9.467 9.467 15.721 22.195 16.413 35.946 1.878 37.317-36.779 57.873-69.927 38.642zm64.12-85.195c-13.367-13.367-30.497-20.454-47.307-20.906-4.855-16.747-1.051-33.691 10.43-45.173 18.041-18.04 49.203-16.231 69.467 4.033 28.927 28.928 17.871 74.826-18.821 81.186-3.442-6.959-8.065-13.436-13.769-19.14zm82.001 80.074c-18.323 18.323-48.583 15.584-68.087-2.711 7.244-13.494 8.653-29.208 5.059-43.985 18.47-4.112 33.897-16.623 41-34.978 34.363 14.633 45.485 58.216 22.028 81.674zm-25.31-247.446c-8.152 0-14.697.566-20.146 3.329-5.04 2.556-11.047 8.133-11.047 20.19 0 18.755 13.993 34.013 31.193 34.013s31.193-15.258 31.193-34.013c0-12.057-6.008-17.634-11.047-20.19-5.449-2.763-11.995-3.329-20.146-3.329zm0 42.531c-8.929 0-16.193-8.529-16.193-19.013 0-5.907.655-8.519 16.193-8.519 15.539 0 16.193 2.612 16.193 8.519 0 10.485-7.264 19.013-16.193 19.013z" data-original="#000000" class="active-path" data-old_color="#000000" fill="#00C012"/></g></g> </svg>
