<?xml version="1.0"?>
<svg xmlns="http://www.w3.org/2000/svg" id="Capa_1" enable-background="new 0 0 512 512" height="512px" viewBox="0 0 512 512" width="512px"><g><g><g><path d="m378.412 276.74c-7.537-10.734-13.33-22.693-16.858-35.334-3.395-12.162-3.827-24.119-3.951-36.62-.254-26.573-10.801-51.656-29.698-70.63-3.629-3.644-7.487-6.977-11.537-9.992 5.522-1.53 10.875-3.641 15.911-6.322 8.648-4.602 16.624-10.865 23.706-18.613 11.156-12.208 17.951-26.843 19.648-42.32.498-4.532-1.73-8.936-5.675-11.219-9.771-5.653-21.148-8.968-32.903-9.586-4.14-.209-7.66 2.957-7.877 7.09-.218 4.133 2.957 7.66 7.09 7.877 8.727.459 16.845 2.638 24.17 6.481-1.742 11.461-7.077 22.331-15.516 31.566-5.842 6.392-12.648 11.75-19.683 15.494-14.199 7.556-32.176 9.527-47.532 5.342.422-9.891 1.252-21.527 2.271-32.935 4.602-5.953 10.313-11.38 16.924-15.944 2.455-1.694 5.204-3.209 8.17-4.501 3.794-1.652 5.531-6.068 3.878-9.863-1.652-3.793-6.066-5.53-9.863-3.878-3.85 1.677-7.449 3.664-10.698 5.907-2.065 1.425-4.052 2.915-5.961 4.462.914-7.749 1.847-14.507 2.698-19.34 2.508-14.238-5.995-28.17-19.783-32.407l-.525-.162c-8.196-2.542-17.012-1.302-24.188 3.401-7.21 4.726-11.888 12.36-12.834 20.945-2.578 23.41-1.003 58.984 1.146 82.165-16.544 4.541-31.742 13.25-44.301 25.641-19.918 19.651-30.917 47.073-30.213 74.951.611 24.068-6.834 48.043-21.528 69.333-4.185 6.064-7.949 12.487-11.188 19.091-1.822 3.716-.286 8.206 3.43 10.028 3.716 1.821 8.205.286 10.028-3.43 2.912-5.94 6.299-11.719 10.064-17.175 16.701-24.196 24.148-51.312 24.148-80.467 0-23.357 9.157-45.256 25.786-61.662 10.132-9.996 22.273-17.172 35.501-21.192 1.685 11.461 11.677 20.101 23.253 20.101 10.935 0 20.217-7.628 22.789-17.855 4.975 1.145 10.092 1.79 15.244 1.945 29.527 13.668 50.335 43.514 50.663 77.818.132 13.781.777 27.316 4.59 40.837 3.993 14.158 10.493 27.554 18.941 39.585 15.923 22.677 24.34 49.363 24.34 77.174 0 35.605-13.777 69.164-38.793 94.495-24.994 25.308-58.33 39.506-93.867 39.978-.609.008-1.212.012-1.82.012-35.357-.001-68.748-13.72-94.193-38.747-25.868-25.443-40.18-59.283-40.298-95.287-.031-9.528.938-19.04 2.88-28.273.852-4.05-1.741-8.024-5.791-8.876-4.05-.85-8.024 1.741-8.876 5.791-2.158 10.261-3.235 20.828-3.201 31.407.131 40.036 16.033 77.654 44.775 105.924 28.271 27.808 65.38 43.049 104.695 43.049.674 0 1.35-.004 2.025-.013 39.5-.525 76.553-16.305 104.332-44.433 27.805-28.154 43.117-65.454 43.117-105.027 0-30.909-9.358-60.574-27.062-85.787zm-108.048-245.478c-3.308 18.778-7.618 63.209-7.931 88.295-.058 4.675-3.877 8.478-8.512 8.478-4.196 0-7.819-3.138-8.427-7.3-2.679-18.34-5.907-65.255-2.801-93.455.454-4.124 2.696-7.787 6.151-10.052 2.253-1.477 4.846-2.237 7.472-2.237 1.36 0 2.73.204 4.065.618l.562.173c6.57 2.02 10.62 8.675 9.421 15.48z" data-original="#000000" class="active-path" data-old_color="#000000" fill="#00C012"/><path d="m253.525 171.716c10.84 0 21.684-3.689 29.833-11.029 3.076-2.77 3.323-7.508.553-10.583-2.769-3.076-7.508-3.323-10.583-.553-10.407 9.371-28.21 9.623-38.876.547-3.153-2.681-7.881-2.3-10.564.851-2.682 3.152-2.301 7.882.851 10.564 8.008 6.814 18.395 10.203 28.786 10.203z" data-original="#000000" class="active-path" data-old_color="#000000" fill="#00C012"/></g></g></g> </svg>
