<?xml version="1.0"?>
<svg xmlns="http://www.w3.org/2000/svg" id="Capa_1" enable-background="new 0 0 512.25 512.25" height="512px" viewBox="0 0 512.25 512.25" width="512px"><g><g><path d="m469.099 237.533c-4.381-12.227-9.866-24.061-16.402-35.286-14.825-25.459-35.206-47.5-59.4-64.167-3.867-2.664-7.824-5.198-11.858-7.601-8.227-4.9-16.778-9.253-25.576-13.032-15.491-6.654-31.777-11.985-48.425-14.339-2.114-.299-29.032-4.293-29.074-3.717.922-14.957 2.509-32.531 4.322-47.625.879-7.318 1.756-13.523 2.535-17.942.422-2.393.532-4.866.327-7.351-.625-7.582-4.44-14.607-10.264-19.463-8.133-6.781-19.672-9.091-29.529-4.934-.04.017-.088.037-.126.053-9.753 4.001-16.528 12.997-17.682 23.479-2.314 21.014-1.298 51.463.469 74.166-21.528 1.74-42.82 6.497-63.027 14.128-23.994 9.062-46.483 22.25-65.686 39.188-25.154 22.188-44.709 51.389-56.552 84.444-11.74 32.77-15.422 67.931-10.648 101.682 3.733 26.384 12.818 51.071 27.004 73.374 13.32 20.94 30.816 39.326 52.003 54.649 20.453 14.791 43.392 26.061 67.475 33.573 12.202 3.806 24.703 6.651 37.348 8.518 51.156 7.553 104.888.578 151.577-22.387 35.595-17.509 64.85-43.095 84.602-73.991 2.227-3.484 1.209-8.113-2.275-10.341-3.485-2.227-8.113-1.208-10.34 2.275-18.278 28.592-45.456 52.32-78.595 68.621-32.313 15.896-68.633 24.019-104.99 23.486-.037-.001-.073-.001-.109-.001h-.156c-.037 0-.073 0-.109.001-49.114.745-97.312-14.159-135.654-41.886-41.004-29.653-66.232-70.453-72.955-117.988-4.435-31.354-1.005-64.043 9.918-94.534 10.992-30.682 29.099-57.746 52.361-78.266 2.122-1.872 4.293-3.69 6.505-5.463 1.545.987 3.245 1.735 5.047 2.19 10.479 2.677 21.693 3.376 31.765 2.155-.755 2.042-1.457 4.054-2.104 6.03-1.285 3.931.86 8.158 4.79 9.443 3.929 1.284 8.158-.86 9.443-4.789 1.89-5.783 4.318-11.934 7.215-18.284 1.272-2.787.717-6.067-1.399-8.281-2.117-2.213-5.368-2.913-8.209-1.771-8.255 3.327-20.055 4.132-31.419 2.306 30.57-19.987 67.613-31.838 105.632-33.621 4.202-.197 7.491-3.983 7.105-8.168-2.069-22.373-3.612-56.439-1.147-78.817.345-3.129 1.771-6.097 4.007-8.314 8.153-8.083 22.829-2.899 23.789 8.764.099 1.208.049 2.393-.151 3.525-.825 4.684-1.743 11.17-2.654 18.755-2.176 18.109-4.26 36.497-4.756 54.742-.274 10.074 7.286 9.193 15.152 9.658 9.331.552 18.628 1.695 27.812 3.436 25.06 4.751 49.262 13.995 70.941 27.46-.012.024-.024.048-.036.07-.185.347-.63.962-1.537 1.193-13.138 3.354-27.973 2.966-37.794-.989-2.841-1.142-6.094-.442-8.211 1.773-2.116 2.215-2.67 5.496-1.396 8.283 9.424 20.624 13.578 38.448 12.347 52.975-.072.847-.539 1.348-.919 1.62-.325.233-1.007.586-1.932.36-19.449-4.812-31.755-23.327-38.654-38.011-1.343-2.859-4.338-4.562-7.482-4.27-3.145.298-5.765 2.537-6.547 5.598-2.935 11.476-12.907 28.864-28.081 48.964-1.569 2.079-3.97 3.272-6.589 3.273-2.625 0-5.032-1.195-6.604-3.275-15.162-20.084-25.134-37.474-28.081-48.966-.785-3.06-3.406-5.298-6.55-5.595-3.141-.292-6.137 1.414-7.48 4.274-12.479 26.597-27.907 35.349-38.656 38.008-2.928.723-2.943-2.853-3.014-4.731-.155-4.132-3.597-7.347-7.763-7.201-4.132.156-7.356 3.631-7.2 7.763.043 1.161.114 2.323.21 3.455.427 5.026 3.022 9.592 7.12 12.527 4.121 2.952 9.316 3.943 14.246 2.721 11.554-2.858 27.124-10.801 40.655-31.726 6.558 13.442 16.354 27.619 24.565 38.495 4.431 5.864 11.19 9.226 18.549 9.225 7.366-.003 14.123-3.367 18.544-9.228 8.214-10.88 18.012-25.059 24.567-38.496 13.541 20.932 29.104 28.873 40.646 31.729 10.114 2.502 20.482-4.782 21.37-15.248 1.154-13.609-1.51-29.253-7.926-46.644 10.069 1.22 21.286.521 31.761-2.153 4.237-1.079 7.899-3.73 10.266-7.357 4.588 3.355 9.035 6.883 13.281 10.627 23.263 20.52 41.369 47.584 52.361 78.266 10.923 30.491 14.353 63.179 9.918 94.534-1.86 13.15-5.207 25.982-9.946 38.138-1.502 3.853.404 8.193 4.256 9.695 3.855 1.505 8.193-.403 9.695-4.255 5.159-13.231 8.799-27.187 10.822-41.48 4.768-33.752 1.086-68.913-10.654-101.683z" data-original="#000000" class="active-path" data-old_color="#000000" fill="#00C012"/></g></g> </svg>
