<?xml version="1.0"?>
<svg xmlns="http://www.w3.org/2000/svg" id="Capa_1" enable-background="new 0 0 512 512" height="512px" viewBox="0 0 512 512" width="512px"><g><g><path d="m479.157 302.74c-12.064-20.608-29.377-36.482-50.065-45.907-26.972-12.287-58.845-16.58-88.803-12.169-5.842-14.317-13.383-27.866-22.519-40.405-7.406-10.166-15.505-19.191-23.349-27.932-6.806-7.586-13.235-14.75-18.85-22.227-18.029-24.005-21.834-59.03-22.97-93.158 16.685-2.411 33.09-6.479 49.052-12.2 6.313-2.262 11.368-6.848 14.231-12.912 2.864-6.064 3.194-12.881.932-19.193-4.672-13.032-19.076-19.834-32.105-15.163-19.016 6.815-38.931 10.739-59.19 11.661-17.17.782-36.765 1.018-51.988-6.124-3.898-1.829-8.636-3.657-14.234-3.302-6.656.417-12.987 3.542-17.366 8.571-9.091 10.44-7.993 26.33 2.447 35.421 9.048 7.879 19.611 10.563 28.752 12.149 8.6 1.491 17.321 2.53 26.073 3.122-.458 6.653-.983 13.291-1.596 19.875-.382 4.101 2.634 7.734 6.734 8.116 4.099.384 7.734-2.633 8.116-6.734.638-6.856 1.185-13.768 1.659-20.695.716.006 1.432.023 2.148.023 7.19 0 14.35-.305 21.467-.906 1.254 36.043 5.543 73.285 25.912 100.405 6.006 7.997 12.646 15.397 19.687 23.245 7.583 8.45 15.424 17.188 22.383 26.74 10.79 14.81 19.18 31.142 24.937 48.542 2.143 6.476-2.836 13.399-9.68 13.399-4.402 0-8.29-2.811-9.674-6.996-5.09-15.39-12.512-29.838-22.058-42.942-6.341-8.704-13.501-16.683-21.081-25.13-7.013-7.816-14.266-15.898-20.813-24.616-4.011-5.341-7.673-11.277-10.883-17.645-1.435-2.844-4.52-4.464-7.673-4.03-3.156.433-5.688 2.823-6.303 5.949-10.422 53.018-25.623 91.058-45.179 113.063-1.933 2.174-4.712 3.422-7.625 3.422-8.654 0-13.293-10.572-7.612-16.964 14.616-16.446 34.538-54.152 46.447-140.393.563-4.079-2.288-7.843-6.367-8.407-4.077-.561-7.843 2.288-8.407 6.367-8.129 58.869-21.538 103.241-38.083 126.52-13.665-.687-27.418.32-40.644 3.106-35.595 7.496-64.514 27.1-81.43 55.2-12.078 20.063-18.302 43.152-18.001 66.77.463 36.279 13.028 72.909 33.612 97.986 12.774 15.561 27.683 27.222 44.316 34.66 16.448 7.352 35.135 11.098 54.123 11.098 11.915 0 23.952-1.476 35.62-4.463 24.479-6.267 46.42-20.546 63.45-41.294 3.312-4.035 6.413-8.373 9.291-12.959 2.88 4.584 5.982 8.923 9.295 12.959 12.773 15.562 27.683 27.223 44.315 34.66 16.449 7.351 35.136 11.099 54.124 11.098 11.916 0 23.952-1.476 35.621-4.463 24.479-6.267 46.419-20.546 63.449-41.294 5.973-7.277 11.325-15.579 15.906-24.677 1.853-3.678.373-8.162-3.306-10.014-3.677-1.854-8.162-.373-10.013 3.306-4.089 8.118-8.837 15.494-14.114 21.923-15.004 18.279-34.237 30.834-55.621 36.308-27.064 6.928-56.207 4.813-79.958-5.801-14.502-6.485-27.582-16.749-38.875-30.507-18.506-22.546-29.806-55.71-30.226-88.714-.262-20.544 5.372-41.458 15.865-58.888 8.983-14.922 21.264-26.334 35.413-34.571 3.911 9.224 12.949 15.288 23.101 15.288 2.676 0 5.33-.429 7.887-1.275 6.367-2.106 11.532-6.565 14.545-12.556 2.677-5.325 3.365-11.292 2.007-17.024 26.67-3.321 54.485.881 77.496 11.364 35.585 16.211 59.131 55.458 58.594 97.662-.151 11.789-1.724 23.783-4.676 35.647-.994 3.996 1.439 8.042 5.436 9.037 3.998.994 8.042-1.438 9.038-5.435 3.229-12.979 4.951-26.12 5.115-39.058.293-23.077-5.675-45.732-17.259-65.519zm-262.891-254.097c-13.587 0-27.242-1.173-40.585-3.488-8.631-1.498-15.592-3.551-21.507-8.702-4.239-3.691-4.684-10.141-.994-14.379 1.778-2.042 4.348-3.311 7.051-3.48.151-.009.303-.014.456-.014 1.971 0 4.045.775 6.512 1.933 18.3 8.585 40.05 8.383 59.001 7.521 21.746-.99 43.125-5.203 63.543-12.52 5.29-1.896 11.138.866 13.034 6.156.919 2.563.784 5.33-.379 7.792-1.162 2.461-3.214 4.323-5.777 5.242-25.81 9.249-52.845 13.939-80.355 13.939zm15.415 319.614c.31 24.283 6.048 48.719 15.979 69.747-3.673 6.809-7.846 13.13-12.48 18.776-15.003 18.279-34.237 30.834-55.62 36.308-27.063 6.929-56.206 4.814-79.959-5.801-14.502-6.485-27.581-16.749-38.875-30.507-18.506-22.546-29.806-55.709-30.227-88.714-.262-20.544 5.372-41.457 15.866-58.888 21.112-35.072 60.385-50.846 99.495-51.245-.994 2.989-1.424 6.169-1.234 9.408.394 6.695 3.373 12.835 8.384 17.288 4.6 4.089 10.521 6.341 16.672 6.341 7.17 0 14.013-3.072 18.773-8.428 3.957-4.452 7.74-9.475 11.352-15.045 2.374.913 4.722 1.867 7.005 2.907 16.462 7.5 30.324 19.946 40.439 35.319-10.475 19.047-15.85 40.559-15.57 62.534zm24.341-76.15c-11.39-15.458-26.062-27.546-43.026-35.275-1.835-.836-3.701-1.619-5.58-2.379 10.227-19.419 18.824-43.936 25.705-73.365.754 1.074 1.521 2.13 2.299 3.167 6.938 9.238 14.411 17.566 21.639 25.62 7.319 8.157 14.233 15.862 20.128 23.952 6.087 8.356 11.197 17.326 15.309 26.763-14.478 8.079-26.848 18.722-36.474 31.517z" data-original="#000000" class="active-path" data-old_color="#000000" fill="#00C012"/><path d="m188.146 297.493c-3.762-1.682-8.171.002-9.852 3.762-3.587 8.018-16.458 8.373-27.316 4.577-14.572-5.092-19.508-14.025-17.928-20.17 1.026-3.988-1.376-8.053-5.365-9.079-3.987-1.027-8.053 1.376-9.079 5.365-3.941 15.326 7.347 30.937 27.452 37.963 6.17 2.156 12.191 3.194 17.772 3.193 12.949 0 23.527-5.587 28.078-15.759 1.681-3.759-.003-8.169-3.762-9.852z" data-original="#000000" class="active-path" data-old_color="#000000" fill="#00C012"/><path d="m342.12 306.747c-14.599 5.006-24.003 1.038-26.561-4.768-1.659-3.77-6.061-5.479-9.83-3.819s-5.479 6.061-3.82 9.829c4.504 10.229 15.066 15.872 27.979 15.872 5.371 0 11.151-.977 17.069-3.006 20.525-7.038 32.149-22.756 28.268-38.223-1.003-3.995-5.059-6.419-9.047-5.418-3.994 1.003-6.42 5.053-5.418 9.047 2.139 8.52-7.758 16.755-18.64 20.486z" data-original="#000000" class="active-path" data-old_color="#000000" fill="#00C012"/></g></g> </svg>
