<?xml version="1.0"?>
<svg xmlns="http://www.w3.org/2000/svg" id="Capa_1" enable-background="new 0 0 512 512" height="512px" viewBox="0 0 512 512" width="512px"><g><g><path d="m457.783 231.944c0-25.734-17.072-47.552-40.484-54.734 1.169-4.55 1.805-9.311 1.805-14.221 0-12.536-4.061-24.135-10.922-33.574 10.778-4.177 22.039-10.726 31.494-21.034 3.658-3.988 4.665-9.58 2.629-14.595-2.029-4.996-6.63-8.29-12.008-8.597-10.868-.62-19.889-2.16-26.055-4.38l1.765-2.39c2.499-3.384 4.829-6.95 6.925-10.602 2.062-3.59.823-8.172-2.768-10.234-3.59-2.062-8.172-.823-10.234 2.768-1.812 3.156-3.826 6.238-5.985 9.163l-6.889 9.331c-2.382 3.227-1.803 7.756 1.315 10.279 7.335 5.937 20.308 9.593 38.581 10.876-9.118 9.165-20.27 14.452-30.387 17.509-9.635-7.37-21.664-11.762-34.704-11.762-1.006 0-2.006.028-3 .079l19.201-25.763c2.474-3.32 1.789-8.017-1.531-10.491s-8.017-1.788-10.491 1.531l-30.687 41.175c-7.159 3.758-13.425 8.99-18.404 15.285-6.057-7.663-14.015-13.757-23.176-17.528.401-9.427 1.173-20.445 2.127-31.34 6.975 8.722 14.861 17.436 21.701 22.136 2.666 1.832 6.204 1.74 8.779-.217s3.602-5.352 2.552-8.411c-.119-.345-11.365-33.947 4.031-62.254 6.453 17.145 13.664 28.532 21.449 33.863 3.309 2.266 7.816 1.527 10.226-1.678l6.973-9.269c10.049-13.358 23.491-23.88 38.871-30.427l1.725-.734-.211 1.863c-.227 2.013-.523 4.045-.879 6.041-.728 4.076 1.987 7.969 6.063 8.697 4.08.727 7.97-1.987 8.697-6.063.412-2.31.755-4.661 1.018-6.991l.432-3.824c.56-4.948-1.49-9.678-5.482-12.654-3.992-2.975-9.111-3.588-13.693-1.637l-3.542 1.508c-17.797 7.577-33.35 19.752-44.979 35.209l-1.787 2.374c-3.889-5.274-7.943-13.478-11.644-23.715-1.832-5.066-6.303-8.534-11.67-9.05-5.388-.512-10.459 2.046-13.235 6.691-10.728 17.951-12.288 37.393-11.2 52.253-3.308-3.999-6.848-8.577-10.551-13.658-.451-.619-.957-1.175-1.488-1.7 1.051-9.351 2.15-17.558 3.139-23.175 2.509-14.244-5.997-28.18-19.767-32.411l-.548-.169c-8.201-2.542-17.019-1.302-24.197 3.402-7.212 4.727-11.891 12.364-12.838 20.953-2.753 24.995-.772 63.846 1.588 86.691-7.101 3.749-13.319 8.95-18.267 15.199-10.492-13.264-26.72-21.793-44.907-21.793-31.564 0-57.242 25.679-57.242 57.242 0 4.91.635 9.671 1.807 14.22-23.413 7.182-40.487 29-40.487 54.735 0 26.411 17.987 48.68 42.35 55.252-2.205 5.845-3.473 12.142-3.637 18.709-14.156 1.699-27.789 6.806-40.182 15.178-4.481 3.028-6.79 8.241-6.026 13.606.767 5.385 4.457 9.763 9.628 11.426 6.534 2.101 12.463 4.206 17.672 6.266-15.07 3.66-34.069 11.47-48.468 28.106-3.6 4.16-4.46 9.872-2.244 14.909 2.207 5.017 6.98 8.23 12.454 8.385 11.495.324 21.044 1.697 27.54 3.889l-1.962 2.825c-11.408 16.423-18.323 35.636-19.996 55.562l-.334 3.975c-.424 5.044 1.797 9.792 5.942 12.698 2.429 1.704 5.227 2.571 8.053 2.571 1.996 0 4.006-.433 5.91-1.309l3.623-1.668c18.165-8.36 33.874-21.405 45.43-37.725l1.987-2.807c4.273 5.361 8.816 13.871 13.036 24.568 2.01 5.094 6.655 8.487 12.124 8.854 5.498.363 10.569-2.386 13.254-7.188 7.317-13.084 10.052-26.781 10.518-39.057 6.934 5.17 15.066 8.82 23.905 10.424-.775 2.79-1.356 5.666-1.703 8.622-.483 4.112 2.458 7.837 6.57 8.32 4.117.486 7.838-2.459 8.32-6.57.398-3.386 1.212-6.628 2.352-9.703 16.02-1.479 30.147-9.57 39.607-21.533 9.461 11.96 23.585 20.052 39.601 21.532 1.708 4.579 2.648 9.528 2.648 14.695 0 23.296-18.953 42.249-42.249 42.249-14.215 0-27.395-7.087-35.256-18.958-2.286-3.452-6.937-4.397-10.39-2.111-3.452 2.286-4.397 6.938-2.111 10.39 10.646 16.079 28.499 25.676 47.757 25.676 31.564 0 57.242-25.679 57.242-57.242 0-5.323-.75-10.469-2.119-15.36 26.7-4.836 47.019-28.237 47.019-56.31 0-6.741-1.18-13.209-3.331-19.22 27.297-4.335 48.232-28.029 48.232-56.527 0-7.087-1.304-13.872-3.669-20.141 24.364-6.572 42.349-28.845 42.349-55.256zm-95.921-111.204c23.297 0 42.249 18.953 42.249 42.25 0 4.083-.598 8.025-1.687 11.76-.627-.021-1.252-.048-1.883-.048-17.034 0-32.345 7.488-42.84 19.334-9.138-10.305-21.912-17.316-36.306-18.953-1.151-3.833-1.783-7.889-1.783-12.093 0-23.298 18.953-42.25 42.25-42.25zm-46.975 68.955c13.999 0 26.42 6.85 34.109 17.369-3.648 7.528-5.697 15.969-5.697 24.88 0 7.085 1.318 13.861 3.684 20.128-12.032 3.243-22.5 10.318-30.024 19.83-9.556-12.078-23.867-20.229-40.087-21.586-2.699-5.561-4.234-11.787-4.234-18.372 0-23.297 18.952-42.249 42.249-42.249zm-56.139-162.405c.454-4.125 2.697-7.789 6.153-10.055 3.423-2.243 7.628-2.834 11.537-1.621l.567.175c6.572 2.019 10.623 8.676 9.424 15.483-2.777 15.767-6.258 49.598-7.491 74.902-2.257-.272-4.549-.428-6.878-.428-4.15 0-8.195.455-12.097 1.298-2.115-22.295-3.714-57.071-1.215-79.754zm13.312 93.45c15.621 0 29.281 8.526 36.591 21.164-2.598 6.528-4.032 13.641-4.032 21.085 0 4.262.484 8.41 1.375 12.407-13.431 2.104-25.32 8.899-33.952 18.646-10.026-11.31-24.432-18.653-40.551-19.282-1.088-3.738-1.681-7.685-1.681-11.77.001-23.298 18.954-42.25 42.25-42.25zm-42.827 68.955c14.002 0 26.41 6.864 34.1 17.386-3.643 7.523-5.689 15.959-5.689 24.864 0 6.75 1.193 13.221 3.352 19.237-13.63 2.681-25.531 10.215-33.84 20.722-8.684-10.976-21.288-18.714-35.69-21.054-2.864-5.691-4.483-12.111-4.483-18.905.001-23.298 18.953-42.25 42.25-42.25zm-46.974-68.955c15.622 0 29.281 8.527 36.589 21.167-2.597 6.527-4.029 13.64-4.029 21.082 0 4.54.545 8.952 1.553 13.188-11.792 2.719-22.2 9.083-29.969 17.849-10.492-11.841-25.796-19.324-42.824-19.324-.634 0-1.261.027-1.889.048-1.088-3.735-1.68-7.679-1.68-11.761-.001-23.297 18.952-42.249 42.249-42.249zm-80.93 111.204c0-23.296 18.953-42.249 42.249-42.249 14.002 0 26.41 6.864 34.101 17.385-3.643 7.523-5.689 15.959-5.689 24.864 0 6.516 1.106 12.777 3.121 18.617-15.962 1.998-29.899 10.583-38.992 22.952-19.748-3.535-34.79-20.82-34.79-41.569zm68.992 227.067c-7.238-17.822-15.088-29.543-23.348-34.857-3.372-2.168-7.856-1.301-10.174 1.973l-6.945 9.809c-10.038 14.176-23.684 25.507-39.462 32.769l-2.187 1.007.202-2.4c1.453-17.309 7.46-33.998 17.37-48.264l6.857-9.871c2.288-3.294 1.578-7.805-1.611-10.237-7.811-5.958-21.506-9.346-40.725-10.08 22.914-24.872 60.201-24.704 60.558-24.701.036 0 .072.001.108.001 3.19 0 6.037-2.022 7.084-5.046 1.059-3.062.032-6.457-2.547-8.418-9.386-7.136-26.898-13.772-40.611-18.261 9.873-6.338 20.621-10.236 31.743-11.61 4.027 16.609 15.316 30.403 30.306 37.829l-25.719 36.672c-2.377 3.39-1.556 8.065 1.833 10.442 1.31.919 2.811 1.359 4.298 1.359 2.361 0 4.685-1.113 6.144-3.192l28.288-40.334c.491.091.98.19 1.476.269-2.154 6.01-3.34 12.477-3.34 19.219 0 9.952 2.564 19.311 7.05 27.47 1.929 12.954 2.188 31.441-6.648 48.452zm11.938-109.421c-23.297 0-42.249-18.953-42.249-42.25 0-23.296 18.953-42.249 42.249-42.249 15.626 0 29.287 8.533 36.595 21.178-2.594 6.527-4.036 13.632-4.036 21.071s1.442 14.545 4.036 21.071c-7.307 12.647-20.969 21.179-36.595 21.179zm44.9 75.747c-23.297 0-42.249-18.953-42.249-42.249 0-6.817 1.631-13.256 4.512-18.963 15.248-1.914 28.649-9.844 37.741-21.339 8.727 11.03 21.421 18.77 35.906 21.07-2.156 6.015-3.35 12.484-3.35 19.232 0 7.436 1.44 14.537 4.032 21.061-7.309 12.648-20.964 21.188-36.592 21.188zm44.901-75.747c-23.297 0-42.249-18.953-42.249-42.25 0-23.296 18.953-42.249 42.249-42.249 15.627 0 29.288 8.534 36.594 21.182-2.593 6.525-4.034 13.629-4.034 21.067s1.441 14.542 4.034 21.068c-7.306 12.648-20.967 21.182-36.594 21.182zm44.901 75.747c-23.297 0-42.249-18.953-42.249-42.249 0-6.818 1.633-13.257 4.515-18.963 15.247-1.916 28.642-9.849 37.732-21.345 9.092 11.495 22.489 19.429 37.737 21.345 2.883 5.706 4.515 12.145 4.515 18.963-.001 23.296-18.954 42.249-42.25 42.249zm44.901-75.747c-23.297 0-42.249-18.953-42.249-42.25 0-23.296 18.953-42.249 42.249-42.249 23.297 0 42.249 18.953 42.249 42.249 0 23.297-18.953 42.25-42.249 42.25zm46.144-76.07c-10.322-14.045-26.887-23.221-45.571-23.407-2.641-5.509-4.144-11.662-4.144-18.169 0-23.296 18.953-42.249 42.249-42.249 23.297 0 42.249 18.953 42.249 42.249.001 20.748-15.036 38.039-34.783 41.576z" data-original="#000000" class="active-path" data-old_color="#000000" fill="#00C012"/></g></g> </svg>
