<?xml version="1.0"?>
<svg xmlns="http://www.w3.org/2000/svg" id="Capa_1" enable-background="new 0 0 512 512" height="512px" viewBox="0 0 512 512" width="512px"><g><g><g><g><g><path d="m387.945 67.032c0-36.962-30.069-67.032-67.029-67.032h-129.832c-36.96 0-67.029 30.07-67.029 67.032v292.374c0 21.589 17.563 39.153 39.15 39.153h52.68v73.397c0 22.08 17.996 40.043 40.115 40.043s40.115-17.963 40.115-40.043v-73.396h52.68c21.588 0 39.15-17.565 39.15-39.153v-114.715c0-5.522-4.478-10-10-10s-10 4.478-10 10v68.117h-223.89v-245.777c0-25.934 21.098-47.032 47.029-47.032h129.832c25.932 0 47.029 21.099 47.029 47.032v87.248c0 5.522 4.478 10 10 10s10-4.478 10-10zm-111.83 404.925c0 11.052-9.023 20.043-20.115 20.043s-20.115-8.991-20.115-20.043v-73.397h40.23zm91.83-139.147v26.597c0 10.561-8.591 19.153-19.15 19.153h-185.59c-10.56 0-19.15-8.592-19.15-19.153v-26.597z" data-original="#000000" class="active-path" data-old_color="#000000" fill="#00C012"/><path d="m386.26 194.12c-2.312-3.534-6.844-5.194-10.904-4.105-3.972 1.066-6.966 4.577-7.36 8.675-.395 4.106 1.828 8.117 5.531 9.939 3.803 1.872 8.487 1.11 11.492-1.89 3.33-3.321 3.847-8.712 1.241-12.619z" data-original="#000000" class="active-path" data-old_color="#000000" fill="#00C012"/><path d="m180.233 103.863v150.623c0 17.021 13.847 30.867 30.866 30.867s30.866-13.847 30.866-30.867v-150.623c0-17.019-13.847-30.866-30.866-30.866s-30.866 13.847-30.866 30.866zm41.733 0v150.623c0 5.992-4.875 10.867-10.866 10.867s-10.866-4.875-10.866-10.867v-150.623c0-5.991 4.875-10.866 10.866-10.866s10.866 4.875 10.866 10.866z" data-original="#000000" class="active-path" data-old_color="#000000" fill="#00C012"/><path d="m270.034 103.863v150.623c0 17.021 13.847 30.867 30.866 30.867s30.866-13.847 30.866-30.867v-150.623c0-17.019-13.847-30.866-30.866-30.866s-30.866 13.847-30.866 30.866zm41.733 0v150.623c0 5.992-4.875 10.867-10.866 10.867s-10.866-4.875-10.866-10.867v-150.623c0-5.991 4.875-10.866 10.866-10.866s10.866 4.875 10.866 10.866z" data-original="#000000" class="active-path" data-old_color="#000000" fill="#00C012"/></g></g></g></g></g> </svg>
