<?xml version="1.0"?>
<svg xmlns="http://www.w3.org/2000/svg" id="Capa_1" enable-background="new 0 0 509.529 509.529" height="512px" viewBox="0 0 509.529 509.529" width="512px"><g><g id="XMLID_1_"><g id="LINES_34_"><path d="m110.939 245.302-12.375-8.477c-2.877 4.199-5.521 8.619-7.858 13.137l13.323 6.893c2.055-3.973 4.38-7.86 6.91-11.553z" data-original="#000000" class="active-path" data-old_color="#000000" fill="#00C012"/><path d="m341.069 369.823 48.682-48.682-21.448-21.448 141.209-206.287-93.406-93.406-206.287 141.211-21.448-21.448-69.21 69.21 13.931 13.931c-7.052 4.654-13.645 10.016-19.664 16.036l-.001.001c-1.877 1.878-3.713 3.833-5.457 5.81l11.251 9.922c1.537-1.744 3.157-3.468 4.814-5.125 6.035-6.036 12.713-11.333 19.905-15.794l151.822 151.822c-4.463 7.193-9.76 13.87-15.794 19.904-15.806 15.806-35.725 26.321-57.604 30.411l2.756 14.744c24.866-4.647 47.5-16.594 65.455-34.548 6.019-6.019 11.381-12.611 16.036-19.664l13.931 13.931 8.933-8.933c32.326 11.877 51.477 29 51.477 46.276 0 22.31-32.764 44.36-81.53 54.869-2.346.506-4.752.99-7.15 1.438l2.759 14.744c2.531-.474 5.072-.984 7.551-1.519 57.592-12.412 93.37-39.056 93.37-69.533-.003-22.821-19.837-43.557-54.883-57.873zm149.032-274.614-9.478 13.846-80.164-80.165 13.846-9.478zm-102.236-57.699 84.137 84.138-114.49 167.254-136.902-136.901zm-247.492 151.463 47.998-47.997 180.167 180.166-47.998 47.998z" data-original="#000000" class="active-path" data-old_color="#000000" fill="#00C012"/><path d="m233.982 489.213c-40.228 0-77.932-6.947-106.165-19.562-25.93-11.586-40.802-26.878-40.802-41.952v-.101c.044-10.778-7.121-20.121-17.424-22.721-16.672-4.205-30.684-10.733-40.518-18.881-6.413-5.312-14.057-13.918-14.057-24.75 0-19.581 25.613-37.964 62.002-45.303.579 8.587 2.034 17.135 4.385 25.516l14.442-4.053c-5.666-20.196-5.486-41.49.52-61.58v-.002c.666-2.229 1.414-4.467 2.223-6.653l-14.067-5.205c-.92 2.484-1.77 5.029-2.527 7.563-2.853 9.542-4.532 19.325-5.068 29.154-46.262 8.461-76.91 32.35-76.91 60.562 0 25.631 25.254 47.923 65.906 58.176 3.603.908 6.108 4.245 6.092 8.166v.107c0 21.571 17.645 41.335 49.683 55.65 30.117 13.456 69.993 20.867 112.284 20.867 2.526 0 5.104-.027 7.662-.082l-.318-14.996c-2.451.054-4.922.08-7.343.08z" data-original="#000000" class="active-path" data-old_color="#000000" fill="#00C012"/><path d="m258.415 488.335 1.088 14.961c5.983-.436 11.975-1.032 17.808-1.773l-1.892-14.881c-5.567.708-11.288 1.278-17.004 1.693z" data-original="#000000" class="active-path" data-old_color="#000000" fill="#00C012"/><path d="m236.452 380.009c-4.115 1.95-8.433 3.559-12.834 4.78l4.013 14.453c5.226-1.451 10.355-3.361 15.245-5.679z" data-original="#000000" class="active-path" data-old_color="#000000" fill="#00C012"/><path d="m201.985 402.732c3.223-.001 6.476-.165 9.669-.488l-1.51-14.924c-3.128.316-6.318.453-9.474.401l-.065-.001-4.698.005.016 15 4.569-.005c.497.009.994.012 1.493.012z" data-original="#000000" class="active-path" data-old_color="#000000" fill="#00C012"/><path d="m258.754 364.266c-3.242 3.241-6.768 6.214-10.48 8.836l8.653 12.252c4.407-3.112 8.589-6.638 12.432-10.48z" data-original="#000000" class="active-path" data-old_color="#000000" fill="#00C012"/><path d="m311.815 182.698h15v15h-15z" transform="matrix(.707 -.707 .707 .707 -40.969 281.481)" data-original="#000000" class="active-path" data-old_color="#000000" fill="#00C012"/><path d="m340.347 154.165h15v15h-15z" transform="matrix(.707 -.707 .707 .707 -12.433 293.316)" data-original="#000000" class="active-path" data-old_color="#000000" fill="#00C012"/><path d="m298.803 142.79h15v15h-15z" transform="matrix(.707 -.707 .707 .707 -16.558 260.608)" data-original="#000000" class="active-path" data-old_color="#000000" fill="#00C012"/><path d="m328.03 113.564h15v15h-15z" transform="matrix(.707 -.707 .707 .707 12.669 272.714)" data-original="#000000" class="active-path" data-old_color="#000000" fill="#00C012"/><path d="m357.964 83.629h15v15h-15z" transform="matrix(.707 -.707 .707 .707 42.595 285.098)" data-original="#000000" class="active-path" data-old_color="#000000" fill="#00C012"/><path d="m351.722 195.71h15.001v14.999h-15.001z" transform="matrix(.707 -.707 .707 .707 -38.472 313.545)" data-original="#000000" class="active-path" data-old_color="#000000" fill="#00C012"/><path d="m380.949 166.483h15v15h-15z" transform="matrix(.707 -.707 .707 .707 -9.25 325.634)" data-original="#000000" class="active-path" data-old_color="#000000" fill="#00C012"/><path d="m410.883 136.549h15v15h-15z" transform="matrix(.707 -.707 .707 .707 20.693 338.051)" data-original="#000000" class="active-path" data-old_color="#000000" fill="#00C012"/><path d="m368.88 125.633h15v15h-15z" transform="matrix(.707 -.707 .707 .707 16.096 305.126)" data-original="#000000" class="active-path" data-old_color="#000000" fill="#00C012"/><path d="m397.412 97.101h15v15h-15z" transform="matrix(.707 -.707 .707 .707 44.622 316.937)" data-original="#000000" class="active-path" data-old_color="#000000" fill="#00C012"/><path d="m426.489 454.974c-23.891 0-42.606 11.981-42.606 27.277s18.715 27.278 42.606 27.278 42.606-11.982 42.606-27.278-18.715-27.277-42.606-27.277zm0 39.555c-16.852 0-27.606-7.272-27.606-12.278s10.754-12.277 27.606-12.277 27.606 7.271 27.606 12.277-10.754 12.278-27.606 12.278z" data-original="#000000" class="active-path" data-old_color="#000000" fill="#00C012"/></g></g></g> </svg>
