<?xml version="1.0"?>
<svg xmlns="http://www.w3.org/2000/svg" id="Layer_1" enable-background="new 0 0 512 512" height="512px" viewBox="0 0 512 512" width="512px" class=""><g><path d="m482.124 111.965-50.596-50.525c-7.348-7.338-7.665-19.144-.707-26.319 1.917-1.977 4.184-3.438 6.927-4.465 6.119-2.291 10.048-8.275 9.714-14.792s-4.855-12.068-11.177-13.723c-1.88-.492-19.005-4.667-41.203.18-20.672 4.515-49.735 17.972-70.799 56.45-.037.066-.072.133-.107.199-1.935 3.666-3.844 8.661-5.153 14.495l-6.675-6.665c-37.013-35.935-91.551-7.651-98.817 34.796-62.505-16.635-100.848 57.965-56.599 99.688l-136.625 229.385c-12.646 21.144-9.298 48.075 8.142 65.49 10.387 10.373 24.344 15.842 38.292 15.841 8.33 0 16.658-1.951 24.216-5.974.044-.023.088-.047.131-.071l168.955-92.093c7.773 6.051 17.274 9.342 27.287 9.342 11.888 0 23.064-4.623 31.469-13.017l25.051-25.016c49.676 27.105 100.184-19.835 85.737-67.754 48.342-9.121 67.514-66.374 34.872-98.719l-8.492-8.48c9.575-2.651 18.628-7.721 26.156-15.238 22.921-22.887 22.921-60.128.001-83.015zm-405.336 367.655c-8.523 4.499-19.92 2.552-27.126-4.644-7.708-7.698-9.188-19.601-3.585-28.97l88.26-148.182 48.146 48.079c2.929 2.925 6.768 4.387 10.606 4.387s7.678-1.462 10.606-4.387c5.858-5.85 5.858-15.333 0-21.183l-53.536-53.461 28.66-48.119 100.707 100.566c-17.106 17.223-43.303 36.896-35.615 64.82l-83.153 45.325-35.962-35.912c-5.857-5.85-15.355-5.85-21.213 0s-5.858 15.333 0 21.183l29.73 29.688zm316.883-124.946c-5.437 5.429-12.665 8.419-20.353 8.419s-14.917-2.99-20.353-8.419c-5.858-5.85-15.355-5.849-21.213 0-.514.513-.982 1.053-1.405 1.617l-32.76 32.714c-2.739 2.736-6.381 4.243-10.256 4.243-3.874 0-7.516-1.507-10.256-4.243-2.74-2.735-4.249-6.372-4.249-10.241s1.509-7.506 4.249-10.241l34.271-34.223c5.858-5.85 5.858-15.333 0-21.183-3.826-3.793-136.514-136.374-135.164-134.975-11.223-11.207-11.222-29.442 0-40.649 5.437-5.428 12.665-8.418 20.353-8.418s14.916 2.989 20.353 8.418c7.002 7.01 155.154 154.949 164.441 164.223.266.229 11.775 11.758 12.342 12.312 11.222 11.204 11.222 29.439 0 40.646zm49.576-78.096c-9.124 12.156-28.369 16.072-40.448 4.196l-152.623-152.408c-24.039-25.6 16.534-64.228 40.959-40.383 44.715 44.699 107.444 107.34 152.112 151.899 9.356 8.987 10.494 26.537 0 36.696zm17.665-102.781c-10.892 10.877-28.922 11.351-40.096 1.318l-64.807-64.717c-14.964-16.11-6.588-34.826-5.285-37.467 14.094-25.62 32.3-36.36 47.592-40.556-5.622 17-1.577 36.69 12 50.248l50.597 50.526c11.221 11.206 11.221 29.441-.001 40.648z" data-original="#000000" class="active-path" data-old_color="#000000" fill="#00C012"/></g> </svg>
