<?xml version="1.0"?>
<svg xmlns="http://www.w3.org/2000/svg" id="Capa_1" enable-background="new 0 0 511.978 511.978" height="512px" viewBox="0 0 511.978 511.978" width="512px"><g><g id="XMLID_319_"><g id="XMLID_341_"><path id="XMLID_354_" d="m471.648 40.33c-26.007-26.006-60.585-40.33-97.365-40.33-36.779 0-71.357 14.323-97.364 40.33l-161.24 161.239c-8.779 8.78-13.615 20.453-13.615 32.869 0 12.417 4.836 24.09 13.615 32.87l31.626 31.626-37.044 37.044c-3.905 3.905-3.905 10.237 0 14.143 3.905 3.904 10.237 3.904 14.142 0l37.043-37.044 37.455 37.454-133.711 133.713c-10.326 10.325-27.128 10.325-37.454 0-10.327-10.326-10.327-27.128 0-37.454l33.029-33.029c3.905-3.905 3.905-10.237 0-14.143-3.905-3.904-10.237-3.904-14.143 0l-33.029 33.029c-18.124 18.124-18.124 47.615 0 65.739 9.062 9.062 20.965 13.592 32.869 13.592 11.903 0 23.807-4.53 32.869-13.592l133.713-133.713 31.626 31.626c8.779 8.779 20.453 13.615 32.87 13.615 12.416 0 24.089-4.836 32.869-13.615l161.239-161.239c26.007-26.007 40.33-60.585 40.33-97.364 0-36.781-14.323-71.359-40.33-97.366zm-101.473 267.918-166.445-166.444 78.206-78.205 166.444 166.444zm-73.908 73.909c-10.325 10.325-27.127 10.327-37.454 0l-128.991-128.992c-10.327-10.326-10.327-27.128-.001-37.454l59.766-59.765 166.445 166.445zm166.102-166.411-166.137-166.136c21.544-19.142 48.991-29.61 78.051-29.61 31.438 0 60.993 12.242 83.223 34.473 22.23 22.229 34.473 51.785 34.473 83.223-.001 29.059-10.469 56.506-29.61 78.05z" data-original="#000000" class="active-path" data-old_color="#000000" fill="#00C012"/><path id="XMLID_944_" d="m85.518 384.87c2.63 0 5.2-1.07 7.06-2.931 1.87-1.859 2.94-4.44 2.94-7.069 0-2.63-1.07-5.21-2.94-7.07-1.85-1.86-4.43-2.93-7.06-2.93-2.64 0-5.22 1.069-7.07 2.93-1.87 1.86-2.94 4.44-2.94 7.07s1.07 5.21 2.94 7.069c1.86 1.861 4.43 2.931 7.07 2.931z" data-original="#000000" class="active-path" data-old_color="#000000" fill="#00C012"/></g></g></g> </svg>
