<?xml version="1.0"?>
<svg xmlns="http://www.w3.org/2000/svg" xmlns:xlink="http://www.w3.org/1999/xlink" version="1.1" id="Capa_1" x="0px" y="0px" viewBox="0 0 423.44 423.44" style="enable-background:new 0 0 423.44 423.44;" xml:space="preserve" width="512px" height="512px"><g><path d="M211.72,0c-60.785,0-110.238,49.453-110.238,110.238v181.119c0,7.073,3.756,20.449,17.97,20.449h59.594v78.959  c0,18.017,14.658,32.675,32.675,32.675s32.675-14.658,32.675-32.675v-78.959H304.6c13.73,0,17.358-15.429,17.358-23.588v-177.98  C321.958,49.453,272.505,0,211.72,0z M152.659,159.615c-13.283,0-24.052-10.768-24.052-24.052c0-13.283,10.768-24.052,24.052-24.052  s24.052,10.768,24.052,24.052C176.711,148.847,165.943,159.615,152.659,159.615z M171.173,98.055  c-13.283,0-24.052-10.768-24.052-24.052c0-13.284,10.768-24.052,24.052-24.052c13.284,0,24.052,10.768,24.052,24.052  C195.225,87.286,184.457,98.055,171.173,98.055z M224.815,146.158c-13.284,0-24.052-10.768-24.052-24.052  c0-13.283,10.768-24.052,24.052-24.052c13.283,0,24.052,10.768,24.052,24.052C248.867,135.39,238.098,146.158,224.815,146.158z" data-original="#000000" class="active-path" data-old_color="#000000" fill="#00C012"/></g> </svg>
