<?xml version="1.0"?>
<svg xmlns="http://www.w3.org/2000/svg" id="Layer_1" enable-background="new 0 0 512.006 512.006" height="512px" viewBox="0 0 512.006 512.006" width="512px"><g><g><path d="m486.293 256.003 24.46-58.08c2.83-6.73.75-14.53-5.07-18.95l-50.19-38.13-7.95-62.53c-.92-7.23-6.62-12.93-13.85-13.85l-62.53-7.95-38.12-50.19c-4.42-5.81-12.22-7.9-18.95-5.07l-58.09 24.46-58.08-24.46c-6.73-2.83-14.53-.75-18.95 5.07l-38.13 50.19-62.53 7.95c-7.23.92-12.93 6.62-13.85 13.85l-7.95 62.53-50.19 38.12c-5.82 4.42-7.9 12.21-5.07 18.95l24.46 58.09-24.46 58.08c-2.83 6.73-.75 14.53 5.07 18.95l50.19 38.13 7.95 62.53c.92 7.23 6.62 12.93 13.85 13.85l62.53 7.95 38.12 50.19c3.1 4.08 7.86 6.32 12.74 6.32 4.501 0 1.727.638 64.3-25.71l58.08 24.46c6.73 2.83 14.53.75 18.95-5.07l38.13-50.19 62.53-7.95c7.23-.92 12.93-6.62 13.85-13.85l7.95-62.53 50.19-38.12c5.82-4.42 7.9-12.21 5.07-18.95zm-366.29 16c-22.06 0-40-17.94-40-40s17.94-40 40-40h24c8.84 0 16 7.16 16 16s-7.16 16-16 16h-24c-4.41 0-8 3.59-8 8s3.59 8 8 8c22.06 0 40 17.94 40 40s-17.94 40-40 40h-24c-8.84 0-16-7.16-16-16s7.16-16 16-16h24c4.41 0 8-3.59 8-8s-3.59-8-8-8zm260.45-117.82c-6.226 6.227-16.357 6.253-22.63 0-56.14-56.15-147.5-56.15-203.64 0-6.25 6.25-16.38 6.25-22.63 0s-6.25-16.38 0-22.63c68.62-68.62 180.28-68.62 248.9 0 6.25 6.25 6.25 16.38 0 22.63zm-52.45 133.82c8.84 0 16 7.16 16 16s-7.16 16-16 16h-40c-8.84 0-16-7.16-16-16v-96c0-8.84 7.16-16 16-16s16 7.16 16 16v80zm-120-8v24c0 8.84-7.16 16-16 16s-16-7.16-16-16v-72c0-22.06 17.94-40 40-40s40 17.94 40 40v72c0 8.84-7.16 16-16 16s-16-7.16-16-16v-24zm-76.45 77.82c6.25-6.25 16.38-6.25 22.63 0 56.14 56.15 147.5 56.15 203.64 0 6.25-6.25 16.38-6.25 22.63 0s6.25 16.38 0 22.63c-68.63 68.63-180.278 68.622-248.9 0-6.25-6.25-6.25-16.38 0-22.63zm244.45-37.82c-8.84 0-16-7.16-16-16v-96c0-8.84 7.16-16 16-16h40c8.84 0 16 7.16 16 16s-7.16 16-16 16h-24v16h8c8.84 0 16 7.16 16 16s-7.16 16-16 16h-8v16h24c8.84 0 16 7.16 16 16s-7.16 16-16 16z" data-original="#000000" class="active-path" data-old_color="#000000" fill="#009E0F"/><path d="m224.003 232.003c0-4.41-3.59-8-8-8s-8 3.59-8 8v16h16z" data-original="#000000" class="active-path" data-old_color="#000000" fill="#009E0F"/></g></g> </svg>
